<?xml version="1.0" encoding="utf-8"?>
<!-- Generator: Adobe Illustrator 16.0.3, SVG Export Plug-In . SVG Version: 6.00 Build 0)  -->
<!DOCTYPE svg PUBLIC "-//W3C//DTD SVG 1.1//EN" "http://www.w3.org/Graphics/SVG/1.1/DTD/svg11.dtd">
<svg version="1.1" id="Layer_1" xmlns="http://www.w3.org/2000/svg"  x="0px" y="0px"
	 width="181.417px" height="181.417px" viewBox="11.405 -58.208 181.417 181.417"
	 enable-background="new 11.405 -58.208 181.417 181.417" xml:space="preserve">
<g id="logoGroup" transform="translate(40,0) scale(0.08)">
	<path fill="#fff" id="character-N" d="M757.507-150.714c-5.218-0.073-10.48,0.952-15.063,3.241c-12.884,6.409-22.339,11.945-30.542,19.269
		c-27.271,24.2-51.929,70.324-66.937,106.055c-13.996,33.337-27.625,72.412-38.05,112.176
		c-10.181,38.94-20.123,79.028-31.268,118.097c-5.939,20.746-9.674,42.45-14.673,64.99c-5.017,22.595-12.884,70.306-38.556,77.331
		c-10.107,2.759-27.289-15.118-36.383-32.684c-7.05-13.611-16.363-29.688-24.298-44.531
		c-17.328-32.416-34.241-72.467-49.878-109.577c-10.541-25.024-43.72-88.446-50.281-97.662
		C348.98,48.297,338.489,29.4,313.031,26.679c-20.435-2.186-34.888,15.484-46.979,32.245
		c-18.262,25.348-34.839,65.448-48.908,96.826c-19.305,42.975-43.384,88.336-70.404,131.634
		c-26.74,42.865-62.207,85.858-98.493,125.202c-21.429,23.236-50.506,52.069-82.135,73.254
		c-16.504,11.054-24.829,19.122-28.833,28.748c-4.95,11.994-5.09,27.234,1.397,39.441c9.485,17.816,15.973,22.064,37.305,22.247
		c18.457,0.141,23.67-6.286,45.99-27.222c20.532-19.226,44.415-66.205,62.732-89.282c32.208-40.576,61.963-96.502,88.983-146.387
		c23.938-44.232,48.163-90.137,76.27-137.872c10.932-18.555,29.535-54.327,56.873-55.121c29.87-0.879,46.93,33.429,60.492,58.643
		c20.843,38.703,36.963,89.264,53.296,134.351c6.494,17.853,15.008,48.096,27.337,72.638c8.783,17.468,18.048,31.11,32.819,44.226
		c26.855,23.877,51.922,27.954,69.202,11.737c5.835-5.487,22.101-34.467,22.943-38.764c2.966-15.161,9.46-28.998,12.329-44.879
		c5.041-27.985,11.822-67.847,18.365-100.806c2.722-13.709,5.328-27.289,8.393-38.959c1.568-6.006,2.728-8.783,2.655-10.022
		c-0.073-1.062-1.038-0.848-0.842-1.556c1.251-4.547,1.709-9.461,3.424-13.672c6.079-14.984,9.967-30.713,14.697-45.612
		c6.342-19.897,12.977-37.488,20.361-55.28c6.659-16.046,12.018-30.103,18.048-45.337c5.548-14.203,12.305-28.857,19.208-42.779
		c4.34-8.648,10.132-21.112,15.247-30.054c13.226-20.337,28.137-31.897,45.892-45.435c11.389-8.637,17.615-17.853,26.929-28.564
		c7.043-8.136,12.061-24.371,9.705-32.892C784.29-143.359,770.923-150.549,757.507-150.714L757.507-150.714z"/>
	<path fill="#fff" id="character-Y" d="M705.146,150.781c-2.802,8.502-7.337,26.251-9.705,34.18c-4.968,16.455-12.445,42.73-14.471,57.666
		c-3.864,27.93-10.187,59.79-10.767,104.474c-0.531,40.052,2.899,80.841,14.771,117.182c10.034,30.585,36.816,58.594,69.971,59.692
		c21.326,0.714,32.19-1.746,52.991-12.628c29.236-19.837,55.103-51.514,62.341-84.607c7.959-36.401,9.9-49.981,1.697-76.232
		c-4.492-14.252-17.81-34.29-16.223-52.204c0.867-10.4,9.656-19.074,17.09-21.258c10.278-3.016,18.091-1.63,25.378,2.582
		c20.508,11.786,20.85,23.743,22.534,71.491c1.88,53.29-5.835,92.761-14.185,138.452c-6.372,34.662-15.247,69.525-24.414,107.464
		c-18.103,75.342-30.786,140.259-71.033,223.059c-15.784,32.367-36.096,64.19-61.676,89.648
		c-28.326,28.229-45.843,30.67-59.21,22.138c-20.85-13.318-14.771-37.329-5.505-55.377c5.841-11.408,13.031-20.386,15.204-22.894
		c40.338-46.027,67.316-84.497,94-137.665c21.521-42.938,40.393-88.019,49.561-130.103c4.199-19.122,9.216-36.218,13.611-55.17
		c-19.019,13.647-42.371,30.475-66.687,37.342c-26.257,7.403-62.884,0.012-84.357-15.369c-30.255-21.691-48.26-56.256-54.724-80.871
		c-5.066-19.349-8.423-63.672-0.965-133.466c4.389-41.101,10.639-66.583,20.075-100.049c7.336-25.903,10.327-34.949,18.097-60.718
		c2.459-8.24,8.441-24.939,9.313-27.966L705.146,150.781z"/>
	<path fill="#fff" id="character-S" d="M1118.799,511.236c-14.575,28.388-35.657,41.943-58.875,49.958c-17.566,6.055-38.794,7.965-60.559,5.866
		c-20.508-1.972-38.367-9.644-57.092-22.852c-26.294-18.555-54.529-39.728-77.588-60.083c-26.55-23.401-60.132-38.159-88.94-43.427
		c-14.429-2.631-23.645-4.065-30.212-7.349c-10.81-5.396-22.149-17.12-20.941-29.278c1.3-12.86,17.615-22.309,43.915-23.297
		c27.991-1.05,45.459,12.811,66.26,28.107c37.537,27.618,70.349,56.317,103.748,80.773c26.44,19.336,53.369,31.897,84.07,23.883
		c19.348-5.188,36.475-17.816,43.86-33.075c4.968-10.315,5.164-34.931,1.929-52.625c-4.529-24.554-28.76-60.357-59.937-86.139
		c-46.851-38.715-81.702-60.107-130.334-98.639c-24.475-19.367-41.455-45.203-52.319-69.178
		c-6.75-18.121-10.754-40.582,5.505-82.745c9.607-24.915,37.061-50.226,69.348-60.291c22.046-6.873,61.475-7.983,97.095-3.546
		c20.41,2.533,36.194,7.978,54.187,14.875c17.712,6.805,31.03,10.858,45.068,27.881c11.584,14.069,10.278,29.248,4.102,41.333
		c-6.604,12.995-20.703,18.195-38.22,11.34c-14.954-5.835-25.037-11.34-36.572-21.57c-24.902-22.101-59.119-32.269-90.43-26.19
		c-31.519,9.448-49.182,21.991-55.737,47.735c-7.483,29.438-0.537,58.752,34.119,90.869c42.029,38.989,88.599,62.732,141.345,98.218
		c24.365,16.382,45.447,38.135,61.572,62.445c13.416,20.288,19.25,47.18,19.446,69.689
		C1136.804,468.445,1128.833,491.632,1118.799,511.236z"/>
	<path fill="#fff" id="character-A" d="M1134.778,477.325c9.985-16.449,23.938-35.132,31.311-52.508c11.34-26.77,23.022-53.381,32.727-80.054
		c20.935-55.353,38.025-116.205,50.33-169.806c7.764-34.033,16.98-69.348,25.769-103.778c4.871-19.098,20.557-37.531,39.954-45.3
		c17.712-7.092,50.574,17.108,62.878,47.729c4.443,11.108,9.985,22.668,15.149,33.368c13.708,28.338,23.511,52.191,35.571,79.272
		c18.433,41.467,40.051,84.918,56.409,124.078c8.057,19.159,14.576,35.242,22.73,54.871c6.322,15.216,10.57,31.244,12.402,42.853
		c3.576,22.424,4.492,38.208-13.416,47.699c-20.166,10.73-33.057-0.446-42.078-13.458c-14.38-20.728-16.846-47.766-20.654-69.671
		c-5.835-33.747-14.575-61.829-23.694-94.031c-2.417-8.673-5.603-16.949-9.509-26.459c-8.679,0.354-14.624,0.763-21.765,5.89
		c-5.591,4.004-16.162,25.598-21.472,41.016c-5.981,17.243-11.389,44.543-20.654,35.474c-6.799-6.665-9.937-20.404-12.732-31.079
		c-2.856-10.822-5.945-19.049-10.193-19c-15.247,2.228-27.014,34.766-29.138,44.721c-2.71,12.848-5.261,27.558-11.829,37.408
		c-3.955,5.963-10.669,10.389-15.637,9.894c-2.026-0.189-1.062-1.19-0.525-2.484c4.968-12.464,3.137-28.51-0.732-37.885
		c-4.529-11.096-10.901-14.136-16.211-17.853c-0.049,3.161-9.558,41.815-13.269,56.86c-6.799,27.819-16.309,56.823-25.183,81.53
		c-5.31,14.63-12.268,29.425-29.199,61.756c-11.731,22.424-26.587,27.746-44.397,15.96c-7.092-4.706-15.735-9.497-18.823-16.516
		C1113.013,504.48,1128.21,488.171,1134.778,477.325z M1304.785,270.508c6.75-6.604,14.575-15.747,24.951-14.734
		c9.888,0.964,20.02,20.85,23.108,25.58c2.466-7.721,4.053-18.518,7.288-23.828c5.505-9.155,11.975-16.711,20.227-23.102
		c8.337-6.458,11.194-6.866,20.789-7.758c-11.621-26.013-19.104-47.235-33.63-72.119c-7.959-13.696-28.32-45.172-45.166-44.763
		c-13.513,0.342-20.032,10.809-25.72,27.124c-3.857,11.12-7.239,26.385-9.998,37.335c-9.985,39.765-20.74,76.563-29.48,115.24
		c6.03,3.979,9.216,6.684,13.989,12.75c3.821,4.914,7.434,9.906,9.509,15.479C1282.483,297.553,1296.094,278.961,1304.785,270.508z"
		/>
	<path fill="#fff" id="character-C" d="M1597.412,443.072c-16.113-3.412-32.189-12.921-44.824-24.536c-4.492-4.138-15.783-18.316-21.289-27.111
		c-16.748-26.831-30.884-60.877-34.595-81.977c-14.148-80.176-14.05-188.428,39.808-247.62
		c12.023-13.232,24.707-22.137,39.867-27.337c16.639-5.707,45.117-7.837,85.511,3.161c43.188,11.762,65.625,30.377,80.103,54.413
		c6.567,19.184,2.648,34.143-14.673,41.907c-18.188,6.665-37.158-10.749-45.41-21.869c-13.171-17.811-36.523-27.051-59.448-28.895
		c-20.996-1.678-39.722,5.091-57.141,25.287c-39.661,45.978-32.044,123.926-24.854,177.234
		c5.31,39.704,28.332,91.559,63.415,104.236c15.442,5.572,38.464,6.128,47.534,1.532c16.602-8.472,44.543-27.026,53.564-40.607
		c11.193-16.797,16.162-25.165,37.586-22.876c10.18,1.099,17.663,3.003,25.049,12.824c7.287,9.686,9.216,8.124,6.078,28.46
		c-2.6,16.986-19.885,25.83-45.117,44.153c-37.695,27.338-45.215,26.593-72.094,32.214
		C1642.053,448.669,1607.349,445.172,1597.412,443.072z"/>
	<path fill="#fff" id="symbol-klimmer" d="M712.384-49.194c-4.01,3.241-5.603,6.152-1.013,11.859c1.88,2.289,6.366,5.499,8.923,9.442
		c6.226,9.705,6.519,12.39,9.266,18.353l2.899,6.323l-3.186,1.893c-2.655,2.484-2.655,3.894-0.049,6.671
		c1.16,1.196,1.929,2.582,1.739,3.052c-0.677,1.819-8.496,9.576-11.102,10.992c-4.297,2.326-4.968,4.175-3.088,7.935
		c0.964,1.85,1.69,5.646,1.69,8.771c0.098,8.075,0.867,9.857,5.164,12.018c2.99,1.495,5.017,2.124,4.388,3.521
		c-1.203,2.545-3.327,5.347-4.773,7.685c-1.788,2.954-1.501,3.405-4.059,10.669c-3.711,10.327-5.451,13.885-8.105,16.431
		c-3.668,3.473-5.066,5.884-7.337,4.657c-0.817-0.446-5.933-2.319-10.229-4.358c-3.186-1.532-11.822-2.472-15.197-4.138
		c-1.111-0.555-2.173-1.904-2.606-2.313c-1.642-1.618-2.075-2.912-4.248-4.541c-2.319-1.746-4.584-5.438-4.633-1.953
		c0,2.197,4.389,4.15,0.629,7.635c-2.466,2.258-6.445-2.545-8.661-4.572c-0.873-0.769-1.642-0.335-1.91,0.977
		c-0.287,1.508-0.36,1.001,0.195,3.284c0.385,1.544,1.184,7.189,2.631,8.374c3.229,2.63,7.214,4.339,9.625,2.771
		c1.593-1.013,8.301-0.977,9.509,0.971c0.384,0.635,7.141,5.774,11.047,8.118c5.31,3.174,6.47,2.954,8.979,3.894
		c1.446,0.531,2.124,0.604,3.668,0.8c-2.271,3.845-3.57,8.343-6.128,12.134l-6.567-2.222c-3.619-1.227-7.141-2.771-7.91-3.4
		c-4.633-3.802-12.066-3.955-17.664-1.764c-4.321,1.715-6.634,4.962-7.532,8.808c-1.08,4.669-2.167,9.729-3.784,14.923
		c-2.002,6.336-2.582,11.847-3.064,11.847c-0.482,0.012-0.891,1.764-0.873,3.9c0.024,2.137-0.623,4.535-1.422,5.347
		c-0.793,0.806-1.709,3.4-2.026,5.774c-0.213,1.428-0.677,3.137-1.251,4.596c-0.366,0.971,1.953,1.233,1.544,1.825
		c-0.58,0.866-0.58,2.496-0.921,3.149c-0.238,0.458-0.916,4.73-1.855,4.571c-0.702-0.122-2.68-0.159-4.438,0.214
		c-1.282,0.269-3.284,0.531-5.188,0.934c-3.21,0.671-7.581,1.3-9.583,3.052c-2.289,2.002-1.782,1.495-2.533,2.759
		c-0.604,1.013-1.855,2.197-1.666,3.912c0.171,1.593,0.366,1.807,0.922,2.594c0.744,1.038,1.104,1.135,4.699,0.555
		c4.633-0.738,13.44-1.458,14.429-1.544c2.655-0.22,5.695-0.073,5.579,0.806c-0.171,1.373-1.789,4.779-2.826,7.166
		c-0.36,0.812,1.355,0.677,0.482,2.258c-0.77,1.422-2.265,5.225-3.449,7.685c-0.75,1.581-0.36,2.917-1.929,2.868
		c-1.038-0.024-3.381-0.757-5.139-1.544c-6.708-2.954-9.338-2.039-11.151-2.93c-3.351-1.63-5.45-0.879-7.092,0.83
		c-0.989,1.05-1.471,2.558-1.422,3.998c0.024,0.708,0.409,1.11,1.086,1.66c1.104,0.921,1.495,1.581,2.649,2.282
		c4.248,2.558,5.792,2.1,11.34,6.019c1.764,1.245,7.94,5.084,9.607,5.804c5.817,2.533,10.541-0.262,13.098-5.646
		c0.22-0.445,0.531-0.653,0.971-0.928c2.191-1.458-0.171-1.05-0.073-1.349c1.153-3.577,4.632-9.656,5.719-11.499
		c0.507-0.849,1.568-0.269,2.649-0.281c1.184,0,1.667-1.471,3.094-4.315c1.733-3.479,3.473-11.268,5.066-14.85
		c0.531-1.233,1.397-2.222,1.929-2.234c0.482,0,1.159-1.099,1.446-2.398c0.775-3.046,7.77-10.498,9.894-10.511
		c0.916,0,3.473-0.928,5.695-2.038c2.362-1.16,4.297-2.137,4.871-2.222l6.567-2.222c2.509-1.025,4.919-2.362,8.105-2.228
		c1.739,0.085,3.284-1.05,3.906,0.311c0.195,0.317,0.293,1.221,0.439,1.63c0.092,0.385,0.574,0.482,0.574,0.928
		c-0.042,1.471-0.867,7.251-1.831,8.71c-0.58,0.934-1.74,1.654-2.075,2.533c-1.062,3.162-1.544,4.657-1.208,8.001
		c0.293,2.472,1.16,1.758,2.515,2.594c1.831,1.135,2.265,0.531,3.375-1.507c0.434-0.8,0.867-0.568,1.831-1.245
		c0.971-0.684,0.727-4.041,0.727-6.574c0-1.147-0.727-1.727-0.678-2.692c0.098-3.583,0.293-7.129,0.391-9.759
		c0.043-1.147,1.056-2.234,1.105-2.954c0.049-1.184,0.873-0.739,1.691-0.75c0.775,0,2.704-0.867,3.088-0.214
		c1.16,1.917,1.111,8.997,0.434,15.356c-0.238,2.222-0.189,4.321-0.434,5.896c-0.287,1.776-1.208,2.087-1.159,4.046
		c0.244,5.414,2.173,6.86,7.916,6.824c3.955-0.024,7.867-13.05,5.408-18.036c-0.628-1.251-1.935-4.712-2.899-7.696
		c-1.014-2.979-1.642-4.163-2.173-5.341c-0.672-1.495-0.092-2.173,1.013-2.875c0.873-0.543,2.124-3.644,2.655-2.966
		c0.58,0.714,0.049,1.989,0.049,3.839c0,3.809,2.899,6.354,7.092,6.329c3.333-0.024,5.744-3.265,5.744-7.562
		c0-2.307,0.775-5.237,1.837-7.446c0.769-1.636,1.642-2.893,2.46-3.216c1.062-0.403,1.495-0.922,1.495-1.508
		c0-1.025-1.446-2.234-4.15-3.21c-1.929-0.702-4.004-1.099-4.584-1.8c-0.335-0.409,0.434-1.099,0.482-1.605
		c0.336-3.979,3.57-15.222,4.199-15.222c0.58,0,1.013-1.001,1.251-2.222c0.244-1.227,1.16-5.817,2.075-10.168
		c0.873-4.346,2.173-8.783,2.851-9.882c0.678-1.086,1.978-5.114,2.942-8.929c0.916-3.796,2.075-7.825,2.563-8.911
		c2.942-6.854,4.773-15.045,4.773-21.502c0-3.735-3.43-6.214-2.942-9.266c0.525-3.314,5.066-7.227,6.702-12.762
		c2.991-10.132,3.381-16.26,1.355-20.868c-2.026-14.563-5.212-16.229-12.109-20.02c-2.899-2.734-6.519-4.425-8.161-4.749
		c-1.397-3.631-1.593-6.891-7.813-17.145c-5.841-9.649-9.894-15.808-13.806-21.186c-1.733-2.344,0.195-4.803-1.496-6.018
		C719.623-51.788,715.906-52.057,712.384-49.194z M672.668,132.373c2.264-0.012,5.017,1.068,7.575,2.991
		c1.978,1.556,3.619,3.186,4.632,4.785c0.531,0.873,3.137,1.74,3.137,2.38c0,0.702-2.411,1.746-3.235,1.978
		c-0.916,0.244-2.557,2.1-5.115,2.777c-2.558,0.684-5.646,2.771-6.562,3.796c-1.403,1.569-3.473,2.558-5.212,4.334
		c-0.244-0.317,1.446-5.561,1.69-6.708c0.238-1.361,0.818-2.472,1.3-2.472c0.482,0,0.867-3.113,0.867-6.916
		C671.698,135.217,672.089,132.373,672.668,132.373z"/>
	<path fill="#fff" id="decoration-underline" d="M927.747,666.541c91.553-26.172,186.755-58.454,270.288-88.495
		c82.422-29.627,171.069-57.355,249.207-81.47c79.858-24.658,160.84-41.016,236.071-50.306
		c42.701-5.273,101.051-20.593,139.99-7.892c17.42,5.694,30.738,12.585,29.676,28.076c-1.16,16.754-10.949,23.077-29.285,27.71
		c-24.23,6.128-56.555,4.73-70.215,4.669c-62.78-0.244-123.205,6.757-186.804,15.32c-56.36,7.599-110.852,23.645-165.039,38.306
		c-101.868,27.563-201.477,73.565-295.288,105.249c-83.911,28.363-158.423,60.064-238.525,73.48
		c-35.181,5.89-74.463,7.153-103.076,3.149c-40.881-5.719-77.362-27.264-100.549-55.292
		c-27.844-33.753-37.061-78.461-47.217-116.113c-7.336-27.259-18.652-54.218-45.776-65.234c-25.861-10.522-53.32-2.79-69.44,1.147
		c-36.432,8.893-61.236,12.549-97.357,22.497c-90.894,25.049-179.132,54.389-247.559,74.183
		c-36.987,10.705-71.423,24.963-107.227,35.65c-42.371,12.646-77.069,26.227-115.143,40.564
		c-56.579,21.289-120.953,48.157-173.431,68.548c-11.487,4.462-36.584,7.02-43.726,3.229c-8.563-4.51-8.563-10.986-13.22-16.577
		c-1.013-1.19-3.113-19.733-2.387-25.153c1.422-10.821,10.034-17.456,24.731-22.967c32.813-12.329,62.274-17.279,93.396-28.375
		c48.236-17.218,98.132-29.315,145.257-45.721c48.425-16.858,97.113-30.054,141.925-44.788
		c46.35-15.222,101.794-26.104,136.779-35.577c49.878-13.483,99.243-22.772,149.237-34.125
		c41.864-9.485,92.291-23.938,130.969-25.751c28.711-1.349,50.836,1.355,62.25,7.52c26.349,14.233,39.453,30.585,45.337,55.628
		c4.755,20.135,8.35,41.583,11.609,60.01c3.735,21.24,22.754,55.591,37.805,68.933c12.744,11.292,30.646,17.651,44.257,21.32
		c29.242,7.886,39.612,9.912,74.219,9.924C840.601,687.83,892.188,676.709,927.747,666.541z"/>
</g>
</svg>
